# Blender 4.1.1
# www.blender.org
mtllib door.mtl
o Cube.002
v 3.556000 -1.778000 -1.778000
v 3.556000 1.778000 1.778000
v 3.556000 1.778000 -1.778000
v 3.556000 -1.778000 1.778000
v 3.299999 -1.778000 1.778000
v 3.299999 -1.778000 -1.778000
v 3.299999 1.778000 1.778000
v 3.299999 1.778000 -1.778000
vn 1.0000 -0.0000 -0.0000
vn -1.0000 -0.0000 -0.0000
vn -0.0000 -0.0000 -1.0000
vn -0.0000 -0.0000 1.0000
vn -0.0000 -1.0000 -0.0000
vn -0.0000 1.0000 -0.0000
vt 0.562500 0.562500
vt 0.562500 0.687500
vt 0.437500 0.687500
vt 0.437500 0.562500
vt 0.567348 0.692348
vt 0.567348 0.557652
vt 0.432651 0.557651
vt 0.432651 0.692348
vt 0.625000 0.284840
vt 0.625000 0.409840
vt 0.375000 0.409840
vt 0.375000 0.284840
vt 0.375000 0.840160
vt 0.625000 0.840160
vt 0.625000 0.965160
vt 0.375000 0.965160
vt 0.159840 0.500000
vt 0.284840 0.500000
vt 0.284840 0.750000
vt 0.159840 0.750000
vt 0.840160 0.750000
vt 0.715160 0.750000
vt 0.715160 0.500000
vt 0.840160 0.500000
s 0
usemtl Material.001
f 3/1/1 2/2/1 4/3/1 1/4/1
f 7/5/2 8/6/2 6/7/2 5/8/2
f 8/9/3 3/10/3 1/11/3 6/12/3
f 4/13/4 2/14/4 7/15/4 5/16/4
f 6/17/5 1/18/5 4/19/5 5/20/5
f 7/21/6 2/22/6 3/23/6 8/24/6
